<?xml version="1.0" standalone="no"?>
<!DOCTYPE svg PUBLIC "-//W3C//DTD SVG 20010904//EN"
 "http://www.w3.org/TR/2001/REC-SVG-20010904/DTD/svg10.dtd">
<svg version="1.0" xmlns="http://www.w3.org/2000/svg"
 width="800.000000pt" height="800.000000pt" viewBox="0 0 800.000000 800.000000"
 preserveAspectRatio="xMidYMid meet">
<metadata>
Created by potrace 1.14, written by Peter Selinger 2001-2017
</metadata>
<g transform="translate(0.000000,800.000000) scale(0.100000,-0.100000)"
fill="#000000" stroke="none">
<path d="M0 4000 l0 -4000 4000 0 4000 0 0 4000 0 4000 -4000 0 -4000 0 0
-4000z m4110 1958 c6 -24 25 -72 41 -107 16 -35 26 -68 22 -74 -3 -5 -1 -7 4
-4 15 9 24 -18 11 -31 -7 -7 -6 -10 4 -9 20 3 91 -90 76 -99 -6 -4 -8 -3 -5 3
4 6 0 16 -8 23 -11 9 -15 9 -15 1 0 -7 -4 -9 -10 -6 -5 3 -10 -3 -10 -14 0
-12 6 -21 14 -21 8 0 18 -5 22 -12 4 -7 3 -8 -4 -4 -9 5 -12 -40 -13 -176 0
-111 -4 -175 -9 -163 -7 16 -9 12 -9 -18 -1 -21 2 -36 7 -34 4 3 8 -11 9 -32
1 -27 -1 -31 -7 -16 -7 16 -9 17 -9 3 -1 -9 4 -20 9 -23 6 -3 10 -11 10 -16 0
-6 -4 -8 -9 -5 -11 7 -22 -31 -14 -50 3 -8 9 -11 14 -8 11 6 11 1 3 -21 -10
-25 -33 34 -28 71 3 21 2 24 -4 11 -7 -16 -10 -13 -25 18 -10 20 -14 41 -11
47 4 6 3 8 -3 5 -16 -10 -161 288 -179 368 -21 94 -14 192 22 281 28 70 74
154 85 154 3 0 12 -19 19 -42z m-265 -668 c9 -17 13 -36 9 -42 -4 -6 -3 -8 3
-5 11 7 34 -22 46 -58 6 -18 6 -18 -5 -3 -7 9 -19 25 -25 35 -10 14 -10 12 -1
-12 7 -16 16 -36 21 -43 6 -7 7 -15 3 -19 -3 -4 -13 2 -21 13 -17 22 -20 12
-4 -17 5 -11 13 -18 17 -15 4 2 7 -18 7 -44 0 -26 -3 -46 -7 -43 -13 7 -9 -12
5 -26 10 -11 10 -13 0 -7 -15 8 -16 5 -7 -19 5 -12 9 -13 14 -5 5 8 9 7 13 -5
4 -9 3 -14 -2 -10 -5 3 -11 1 -13 -5 -1 -5 -30 40 -62 102 -55 103 -60 118
-64 189 -3 56 0 91 13 130 l18 54 13 -58 c8 -31 21 -71 29 -87z m-206 -279
c13 -25 17 -40 9 -35 -10 6 -10 4 1 -9 8 -10 11 -20 8 -24 -4 -3 -2 -14 4 -25
12 -23 2 -39 -11 -18 -7 11 -9 9 -7 -8 0 -12 5 -22 10 -22 4 0 5 -5 1 -11 -10
-16 -51 58 -65 116 -9 39 -8 60 2 95 12 45 12 45 19 15 4 -16 17 -50 29 -74z
m388 -158 c-2 -16 -4 -3 -4 27 0 30 2 43 4 28 2 -16 2 -40 0 -55z m493 -13
c-12 -23 -16 -24 -26 -8 -4 6 -3 8 3 5 6 -4 13 0 17 8 3 8 8 15 11 15 3 0 1
-9 -5 -20z m-853 -12 c2 -17 0 -19 -7 -8 -5 8 -6 18 -4 22 8 12 10 10 11 -14z
m610 -40 c-2 -13 -4 -3 -4 22 0 25 2 35 4 23 2 -13 2 -33 0 -45z m218 23 c3
-5 2 -12 -3 -15 -5 -3 -9 1 -9 9 0 17 3 19 12 6z m-65 -84 c0 -2 -9 -12 -19
-21 -14 -13 -21 -14 -27 -5 -4 7 -3 10 3 6 6 -4 16 0 23 8 12 14 20 19 20 12z
m-693 -29 c-3 -8 -6 -5 -6 6 -1 11 2 17 5 13 3 -3 4 -12 1 -19z m523 -29 c-12
-21 -1 -38 24 -39 5 0 7 -3 4 -6 -4 -3 -16 -1 -27 6 -12 6 -21 7 -21 1 0 -5 6
-11 13 -14 6 -3 3 -5 -9 -4 l-21 1 21 47 c12 26 22 43 24 39 2 -5 -2 -19 -8
-31z m-290 -23 c0 -2 -8 -10 -17 -17 -16 -13 -17 -12 -4 4 13 16 21 21 21 13z
m-297 -153 c-13 -2 -35 -2 -50 0 -16 2 -5 4 22 4 28 0 40 -2 28 -4z m-69 -9
l46 -7 0 -78 c0 -84 -2 -87 -57 -80 -26 4 -12 -9 20 -18 31 -9 30 -9 -18 -10
-38 -1 -46 2 -35 10 12 9 12 10 -3 5 -10 -3 -39 -6 -63 -6 -24 0 -44 -3 -44
-8 0 -4 21 -6 48 -5 26 1 -25 -8 -113 -22 -470 -70 -801 -162 -948 -264 -24
-16 -48 -27 -52 -23 -3 4 -5 3 -4 -3 4 -12 -102 -120 -114 -117 -5 1 -6 -1 -3
-6 3 -5 -6 -25 -19 -44 -92 -135 -84 -327 21 -487 37 -56 105 -128 150 -157
13 -9 21 -21 17 -27 -3 -5 -2 -7 3 -4 6 3 30 -8 54 -25 49 -33 194 -108 280
-145 l55 -23 -60 6 c-33 4 -96 17 -140 30 -91 27 -247 102 -239 115 3 5 -1 7
-8 4 -16 -6 -154 98 -150 114 1 6 -3 10 -9 9 -18 -4 -113 118 -149 190 -19 39
-38 100 -48 152 -14 81 -14 94 1 154 56 229 257 406 552 487 43 11 99 34 125
50 166 102 396 177 675 219 137 21 164 22 229 14z m147 -20 c23 -25 23 -26 2
-13 -13 7 -25 19 -27 26 -8 19 -2 16 25 -13z m140 -7 c-10 -9 -11 -8 -5 6 3
10 9 15 12 12 3 -3 0 -11 -7 -18z m-204 -11 c-3 -8 -1 -17 6 -19 7 -2 9 -8 4
-12 -11 -13 -28 10 -21 28 3 9 8 17 11 17 3 0 3 -6 0 -14z m321 -11 c-3 -3 -9
2 -12 12 -6 14 -5 15 5 6 7 -7 10 -15 7 -18z m-258 -6 c0 -11 -3 -11 -24 -3
-23 9 -20 23 4 17 11 -3 20 -9 20 -14z m44 12 c3 -5 -7 -16 -22 -25 l-27 -17
22 19 c12 11 19 22 16 26 -4 3 -4 6 0 6 3 0 8 -4 11 -9z m313 -18 c-22 -22
-29 -25 -39 -15 -11 11 -10 12 3 7 9 -3 23 3 34 15 10 11 21 20 24 20 3 0 -7
-12 -22 -27z m650 21 c-3 -3 -12 -4 -19 -1 -8 3 -5 6 6 6 11 1 17 -2 13 -5z
m-899 -30 c-13 -13 -20 -14 -34 -5 -17 11 -17 11 3 6 12 -3 24 -1 28 5 3 5 9
10 13 10 3 0 -1 -7 -10 -16z m-121 -10 c-3 -3 -12 -4 -19 -1 -8 3 -5 6 6 6 11
1 17 -2 13 -5z m80 -90 c-3 -3 -12 -4 -19 -1 -8 3 -5 6 6 6 11 1 17 -2 13 -5z
m116 -1 c-18 -2 -48 -2 -65 0 -18 2 -4 4 32 4 36 0 50 -2 33 -4z m384 1 c-3
-3 -12 -4 -19 -1 -8 3 -5 6 6 6 11 1 17 -2 13 -5z m-574 -11 c-18 -2 -48 -2
-65 0 -18 2 -4 4 32 4 36 0 50 -2 33 -4z m1114 -49 c-3 -3 -12 -4 -19 -1 -8 3
-5 6 6 6 11 1 17 -2 13 -5z m-944 -21 c-7 -2 -21 -2 -30 0 -10 3 -4 5 12 5 17
0 24 -2 18 -5z m-123 -10 c-19 -2 -44 -8 -55 -13 -20 -9 -135 -23 -190 -23
-16 0 -24 -2 -16 -5 10 -3 11 -6 1 -12 -7 -4 18 -7 56 -5 l69 3 -3 -82 c-3
-78 -2 -83 20 -94 20 -10 17 -11 -22 -7 -34 4 -39 3 -20 -4 l25 -9 -28 -1
c-19 -1 -26 -5 -21 -13 5 -7 1 -9 -13 -6 -16 4 -19 2 -16 -13 3 -11 0 -31 -6
-47 -16 -40 -18 -104 -3 -109 8 -3 12 9 12 41 0 91 31 132 99 129 93 -4 107
-4 142 2 46 9 86 -15 105 -62 15 -36 19 -163 5 -163 -5 0 -9 33 -9 74 -1 88
-12 113 -58 132 -31 13 -39 13 -71 -3 -33 -16 -38 -16 -65 0 -15 9 -35 14 -43
12 -51 -16 -50 -16 -35 -26 12 -8 10 -9 -7 -4 -29 8 -44 -20 -46 -90 -2 -48
-5 -55 -22 -55 -33 0 -43 13 -49 64 -7 52 -21 86 -37 86 -5 0 -3 -13 6 -30 17
-32 20 -110 5 -110 -5 0 -10 18 -10 41 0 75 -43 119 -115 119 -40 0 -90 -40
-100 -80 -5 -19 -4 -22 4 -10 9 13 11 13 11 -2 0 -21 -9 -22 -61 -6 -42 12
-45 18 -28 51 7 12 8 19 4 15 -4 -4 -14 0 -22 10 -13 15 -13 15 -4 -5 17 -33
3 -56 -28 -48 -51 13 -231 87 -227 93 2 4 -6 8 -17 9 -12 0 -44 14 -71 29
l-49 28 54 18 c158 55 555 143 598 134 20 -5 23 -4 11 4 -12 9 -8 11 18 7 17
-2 32 0 32 3 0 7 68 17 175 26 33 3 62 7 64 10 2 2 23 3 45 2 40 -1 40 -1 6
-5z m900 -23 c34 -35 47 -89 32 -133 l-11 -32 5 32 c10 62 -32 137 -81 144
-35 5 -85 -12 -100 -34 -20 -29 -19 -106 2 -129 24 -27 97 -25 117 4 16 23 22
90 9 86 -5 -1 -17 3 -28 9 -28 15 -34 16 -49 1 -20 -20 -24 -52 -9 -67 8 -7
12 -15 9 -18 -9 -9 -36 25 -36 46 0 28 38 61 69 61 74 -1 92 -89 29 -142 -61
-52 -130 -26 -156 59 -22 73 41 143 131 143 29 0 45 -7 67 -30z m-853 4 c-3
-3 -12 -4 -19 -1 -8 3 -5 6 6 6 11 1 17 -2 13 -5z m-70 -10 c-3 -3 -12 -4 -19
-1 -8 3 -5 6 6 6 11 1 17 -2 13 -5z m1380 0 c-3 -3 -12 -4 -19 -1 -8 3 -5 6 6
6 11 1 17 -2 13 -5z m-1442 -14 c-16 -4 -24 -8 -16 -9 8 0 11 -4 8 -7 -4 -4
-13 -1 -21 6 -10 7 -31 10 -58 6 -30 -4 -35 -3 -18 3 14 5 50 8 80 8 44 0 49
-2 25 -7z m1562 -56 c-3 -3 -12 -4 -19 -1 -8 3 -5 6 6 6 11 1 17 -2 13 -5z
m40 -10 c-3 -3 -12 -4 -19 -1 -8 3 -5 6 6 6 11 1 17 -2 13 -5z m-677 -34 c-6
-11 -15 -20 -19 -20 -5 0 -7 9 -4 20 3 11 12 20 20 20 11 0 11 -4 3 -20z
m1084 -9 c3 -5 -2 -15 -12 -22 -15 -12 -16 -12 -5 2 7 9 10 19 6 22 -3 4 -4 7
0 7 3 0 8 -4 11 -9z m-1369 -96 c0 -5 30 -11 67 -13 63 -3 68 -5 74 -28 4 -14
3 -29 -2 -34 -11 -10 -154 -18 -148 -8 3 4 36 8 75 8 62 0 69 2 69 20 0 22
-19 28 -95 32 -44 3 -50 6 -53 27 -2 13 -12 26 -24 29 -14 3 -16 7 -7 13 13 8
44 -25 44 -46z m-1610 -24 c28 -19 52 -38 55 -41 3 -3 18 -13 33 -23 15 -10
25 -23 21 -29 -4 -7 -3 -8 5 -4 15 10 104 -62 95 -76 -4 -6 -3 -8 3 -5 15 9
77 -59 70 -77 -3 -8 -3 -16 1 -18 4 -2 20 -41 36 -88 34 -103 128 -303 179
-383 21 -32 34 -63 31 -69 -4 -6 -3 -8 2 -5 6 3 25 -18 44 -46 42 -63 145
-183 219 -254 l55 -53 -29 -30 c-16 -16 -24 -30 -17 -30 6 0 13 4 17 10 3 5
13 7 23 4 14 -5 15 -4 2 5 -23 17 7 33 32 18 22 -15 23 -21 1 -38 -16 -12 -17
-12 -5 2 10 13 9 19 -4 30 -14 11 -15 10 -12 -7 2 -13 -3 -19 -17 -19 -13 0
-21 -8 -23 -23 -4 -26 16 -83 32 -94 8 -6 7 -11 -2 -16 -16 -11 -6 -61 15 -69
8 -3 11 -13 7 -25 -4 -15 -3 -18 6 -13 9 6 9 3 1 -14 -9 -16 -9 -21 1 -21 10
0 10 -2 0 -9 -10 -6 -3 -13 25 -25 32 -14 33 -16 8 -10 -16 4 -35 7 -41 7 -7
0 -10 14 -8 33 3 38 -7 49 -34 35 -13 -7 -23 -6 -32 2 -10 10 -12 8 -6 -8 6
-16 5 -18 -5 -7 -7 6 -20 12 -28 12 -11 0 -8 -5 8 -16 18 -13 28 -14 48 -5 14
7 28 9 31 6 3 -3 -1 -5 -9 -5 -11 0 -12 -2 -1 -9 11 -7 10 -9 -3 -14 -10 -4
-14 -3 -9 4 4 7 0 9 -14 5 -38 -12 -143 59 -126 85 5 8 9 16 9 19 6 45 19 80
30 80 8 0 17 4 20 10 4 6 -1 7 -11 3 -13 -5 -15 -2 -11 13 20 64 19 75 -2 95
-11 11 -23 18 -26 17 -7 -4 -65 35 -65 45 0 4 -6 7 -14 7 -7 0 -20 8 -27 17
-12 14 -12 16 0 8 10 -5 12 -4 7 4 -4 6 -12 9 -17 5 -14 -8 -50 26 -42 39 3 5
2 7 -4 4 -5 -3 -20 1 -32 9 -19 13 -20 18 -9 32 11 15 11 15 -3 4 -15 -11 -26
-3 -85 64 -38 42 -68 83 -68 90 1 8 -2 12 -6 9 -18 -11 -134 161 -208 311 -81
161 -144 347 -175 511 -9 49 -10 70 -3 66 6 -3 34 -22 61 -42z m1552 -133 c-2
-35 -3 -7 -3 62 0 69 1 97 3 63 2 -35 2 -91 0 -125z m-518 156 c2 -2 2 -7 -2
-10 -3 -3 -16 2 -29 11 l-23 17 25 -7 c14 -4 27 -9 29 -11z m445 -23 c4 -5 -3
-7 -14 -4 -28 7 -67 -4 -90 -27 -16 -16 -20 -34 -20 -90 0 -66 -1 -71 -26 -80
-14 -6 -35 -10 -47 -9 -14 1 -9 5 16 11 20 6 38 15 39 21 3 22 5 52 7 90 2 52
45 97 95 97 19 0 37 -4 40 -9z m412 -121 l0 -125 -5 120 c-5 97 -9 120 -21
120 -12 0 -16 -21 -21 -110 l-5 -110 -2 111 c-1 61 1 114 5 118 4 4 16 6 28 4
19 -3 20 -10 21 -128z m244 110 c14 -11 21 -20 15 -19 -5 0 -19 6 -29 14 -25
19 -49 19 -89 0 l-32 -16 24 21 c29 25 78 26 111 0z m79 16 c-2 -2 -15 -9 -29
-16 -23 -12 -24 -12 -11 3 7 10 20 17 29 17 8 0 13 -2 11 -4z m38 -2 c-3 -3
-12 -4 -19 -1 -8 3 -5 6 6 6 11 1 17 -2 13 -5z m255 -7 c-64 -20 -103 -78 -93
-139 0 -5 -4 -8 -10 -8 -6 0 -8 7 -5 16 3 9 6 26 6 39 0 45 66 104 115 103 12
0 7 -4 -13 -11z m63 3 c3 -6 -1 -7 -9 -4 -18 7 -21 14 -7 14 6 0 13 -4 16 -10z
m56 -52 c6 -12 6 -18 -1 -18 -5 0 -10 5 -10 12 0 6 -8 21 -17 32 -17 20 -17
20 0 7 10 -8 23 -23 28 -33z m-1936 22 c4 -7 -7 -8 -34 -4 -36 6 -43 3 -70
-27 -17 -18 -31 -29 -31 -24 1 15 33 52 50 58 26 9 79 7 85 -3z m272 4 c-3 -3
-12 -4 -19 -1 -8 3 -5 6 6 6 11 1 17 -2 13 -5z m1353 -39 c0 -5 -5 -3 -10 5
-5 8 -10 20 -10 25 0 6 5 3 10 -5 5 -8 10 -19 10 -25z m-1600 15 c0 -5 -8 -10
-17 -10 -11 0 -14 -3 -7 -8 27 -18 47 -92 24 -92 -5 0 -10 10 -10 23 0 62 -72
91 -104 42 -9 -14 -12 -25 -7 -25 5 0 13 9 16 21 10 31 57 22 69 -13 5 -15 7
-30 5 -33 -9 -8 -119 17 -119 27 0 6 9 23 20 38 17 24 30 30 68 33 26 2 50 4
55 5 4 1 7 -2 7 -8z m284 -22 c10 -14 16 -44 16 -78 l0 -56 -40 4 c-22 2 -43
9 -47 15 -4 6 0 8 10 4 14 -5 17 1 17 39 0 38 -3 45 -16 40 -8 -3 -12 -2 -9 4
3 6 13 10 21 10 10 0 14 -13 14 -50 0 -38 4 -50 15 -50 11 0 15 12 15 49 0 54
-15 74 -52 69 -21 -3 -23 -9 -26 -60 -4 -71 -22 -78 -22 -9 0 27 -2 55 -3 63
-2 7 -2 10 0 6 7 -13 23 -9 23 5 0 8 14 14 34 15 26 2 38 -3 50 -20z m122 14
c22 -14 34 -52 34 -106 0 -31 -4 -56 -10 -56 -6 0 -10 28 -10 63 0 73 -9 90
-41 85 -22 -3 -24 -8 -27 -70 -2 -38 -7 -68 -12 -68 -15 0 -12 134 2 148 13
13 47 16 64 4z m357 1 c-7 -2 -21 -2 -30 0 -10 3 -4 5 12 5 17 0 24 -2 18 -5z
m597 -3 c-8 -5 -19 -10 -25 -10 -5 0 -3 5 5 10 8 5 20 10 25 10 6 0 3 -5 -5
-10z m170 -1 c12 -9 12 -10 -4 -5 -10 4 -29 -1 -42 -9 -28 -18 -31 -14 -8 9
18 19 33 20 54 5z m260 -9 c-33 -26 -48 -26 -25 0 10 11 25 20 34 20 12 0 9
-6 -9 -20z m44 11 c3 -4 -9 -23 -26 -42 -18 -19 -24 -23 -15 -9 10 14 20 33
24 43 6 19 9 21 17 8z m-1141 -68 c-3 -38 -9 -75 -14 -83 -8 -14 -3 81 7 128
9 42 12 22 7 -45z m712 57 c3 -5 1 -10 -4 -10 -6 0 -11 5 -11 10 0 6 2 10 4
10 3 0 8 -4 11 -10z m-1390 -10 c3 -5 1 -10 -4 -10 -6 0 -11 5 -11 10 0 6 2
10 4 10 3 0 8 -4 11 -10z m1254 -77 c-1 -48 -5 -80 -9 -72 -4 8 -6 34 -5 59 2
25 4 57 4 73 1 15 3 27 6 27 3 0 5 -39 4 -87z m-371 29 c2 -33 9 -52 23 -64
25 -21 12 -24 -15 -5 -20 14 -37 117 -20 117 5 0 10 -21 12 -48z m422 -22 l-7
-65 -1 61 c-1 33 1 64 5 67 10 10 10 7 3 -63z m240 60 c0 -5 -4 -10 -10 -10
-5 0 -10 5 -10 10 0 6 5 10 10 10 6 0 10 -4 10 -10z m47 -82 c-2 -18 -4 -4 -4
32 0 36 2 50 4 33 2 -18 2 -48 0 -65z m293 87 c0 -8 -59 -65 -67 -65 -4 0 8
16 27 35 34 35 40 40 40 30z m-1510 -9 c0 -3 -4 -8 -10 -11 -5 -3 -10 -1 -10
4 0 6 5 11 10 11 6 0 10 -2 10 -4z m1030 -66 c0 -33 -3 -60 -7 -60 -5 0 -6 27
-5 60 5 77 12 77 12 0z m335 26 c0 -19 -3 -32 -7 -29 -5 2 -8 17 -8 34 0 16 3
29 8 29 4 0 7 -15 7 -34z m-753 12 c-7 -7 -12 -21 -12 -32 0 -10 -3 -17 -6
-13 -10 10 5 57 18 57 9 0 9 -3 0 -12z m465 -50 c-2 -13 -4 -3 -4 22 0 25 2
35 4 23 2 -13 2 -33 0 -45z m90 -5 c-2 -16 -4 -5 -4 22 0 28 2 40 4 28 2 -13
2 -35 0 -50z m-520 0 c-3 -10 -5 -2 -5 17 0 19 2 27 5 18 2 -10 2 -26 0 -35z
m763 27 c0 -5 -2 -10 -4 -10 -3 0 -8 5 -11 10 -3 6 -1 10 4 10 6 0 11 -4 11
-10z m-95 -20 c3 -5 1 -10 -4 -10 -6 0 -11 5 -11 10 0 6 2 10 4 10 3 0 8 -4
11 -10z m-735 -25 c-7 -9 -15 -13 -19 -10 -3 3 1 10 9 15 21 14 24 12 10 -5z
m-1226 -16 c14 -7 23 -15 21 -19 -2 -3 5 -6 17 -6 17 1 26 -16 58 -114 21 -63
49 -141 64 -174 14 -32 23 -63 19 -69 -3 -5 -2 -7 4 -4 10 6 50 -70 45 -85 -1
-5 2 -8 7 -8 16 0 45 -55 43 -82 -1 -16 3 -28 9 -28 6 0 8 7 4 18 -5 13 -4 14
6 5 10 -10 9 -17 -5 -32 -12 -13 -14 -21 -6 -26 6 -4 17 1 24 10 11 15 13 15
25 2 9 -12 9 -17 0 -23 -7 -4 -9 -3 -5 4 3 6 2 13 -3 16 -17 11 -21 -27 -5
-45 25 -27 9 -23 -18 4 -79 81 -151 183 -141 200 3 5 1 7 -4 4 -12 -8 -91 138
-127 235 -40 105 -75 228 -66 228 5 0 20 -5 34 -11z m-759 -264 c15 -55 28
-104 29 -110 1 -5 5 -15 9 -22 4 -6 2 -13 -4 -15 -8 -3 -10 -16 -5 -41 4 -21
11 -35 16 -32 4 3 6 -5 2 -17 -5 -21 -5 -21 -14 3 -24 64 -59 223 -73 326 -18
140 -18 210 0 93 8 -47 26 -130 40 -185z m1582 249 c-3 -3 -12 -4 -19 -1 -8 3
-5 6 6 6 11 1 17 -2 13 -5z m770 0 c-3 -3 -12 -4 -19 -1 -8 3 -5 6 6 6 11 1
17 -2 13 -5z m-200 -10 c-3 -3 -12 -4 -19 -1 -8 3 -5 6 6 6 11 1 17 -2 13 -5z
m1050 -36 c-3 -8 -6 -5 -6 6 -1 11 2 17 5 13 3 -3 4 -12 1 -19z m340 -40 c-3
-7 -5 -2 -5 12 0 14 2 19 5 13 2 -7 2 -19 0 -25z m-10 -60 c-3 -8 -6 -5 -6 6
-1 11 2 17 5 13 3 -3 4 -12 1 -19z m-557 -408 c-12 -16 -24 -30 -26 -30 -3 0
4 14 16 30 12 17 24 30 26 30 3 0 -4 -13 -16 -30z m-2860 -10 c0 -5 -2 -10 -4
-10 -3 0 -8 5 -11 10 -3 6 -1 10 4 10 6 0 11 -4 11 -10z m1011 -77 c13 -16 12
-17 -3 -4 -17 13 -22 21 -14 21 2 0 10 -8 17 -17z m2237 -8 c-3 -3 -9 2 -12
12 -6 14 -5 15 5 6 7 -7 10 -15 7 -18z m-864 -56 c-3 -5 -10 -7 -15 -3 -5 3
-7 10 -3 15 3 5 10 7 15 3 5 -3 7 -10 3 -15z m-29 -21 c5 4 5 1 0 -6 -5 -10
-10 -11 -18 -3 -8 8 -17 6 -31 -7 -21 -17 -21 -17 -2 5 13 16 23 20 31 13 6
-5 16 -6 20 -2z m284 -41 c-6 -10 -13 -16 -16 -13 -4 3 -16 -2 -27 -11 -21
-18 -21 -18 -2 4 10 13 23 20 29 16 6 -4 8 0 5 9 -4 8 0 15 7 15 11 0 11 -5 4
-20z m-352 -4 c-4 -3 -1 -13 6 -22 10 -14 10 -14 -5 -3 -11 9 -18 10 -23 2 -3
-5 -1 -10 4 -10 6 0 11 -4 11 -9 0 -11 -101 -77 -112 -73 -5 1 -8 -2 -8 -8 0
-5 -27 -23 -60 -40 -71 -36 -92 -40 -32 -5 53 30 148 104 186 144 17 17 32 31
35 31 2 0 1 -3 -2 -7z m37 -8 c-4 -8 -11 -12 -16 -9 -6 4 -5 10 3 15 19 12 19
11 13 -6z m366 -1 c0 -8 -19 -13 -24 -6 -3 5 1 9 9 9 8 0 15 -2 15 -3z m-64
-26 c4 -7 3 -10 -1 -5 -5 4 -17 0 -27 -10 -10 -9 -18 -12 -18 -8 0 4 -9 0 -20
-10 -19 -17 -19 -19 -3 -39 15 -17 15 -18 2 -8 -14 11 -20 9 -36 -11 -10 -13
-24 -22 -31 -19 -6 2 -12 -1 -12 -6 0 -15 26 -8 50 13 17 15 20 16 15 3 -9
-24 -79 -70 -96 -63 -9 3 -25 -6 -39 -22 l-25 -28 26 23 c26 23 39 28 39 14 0
-11 -112 -75 -185 -106 -33 -14 -52 -20 -41 -13 103 67 139 86 148 81 6 -4 8
-3 5 3 -7 11 109 118 128 118 5 1 9 7 7 14 -1 7 2 10 8 6 5 -3 10 0 10 8 0 16
44 60 52 52 3 -3 11 1 18 10 15 18 17 18 26 3z m-2495 -24 c33 -6 47 -17 96
-78 84 -104 207 -223 319 -307 100 -75 293 -190 352 -210 19 -6 29 -15 26 -21
-4 -6 -3 -8 3 -5 14 9 204 -58 195 -68 -4 -5 -2 -5 5 -2 6 4 49 -2 94 -13 46
-11 128 -25 184 -31 130 -14 145 -17 145 -30 0 -6 -8 -8 -18 -5 -14 5 -17 0
-17 -24 -1 -23 3 -29 15 -25 13 4 17 -2 17 -27 0 -39 -10 -48 -59 -48 -96 0
-486 89 -474 109 2 3 -8 6 -23 7 -42 1 -245 104 -362 182 -231 155 -408 344
-564 601 -6 11 -4 13 9 8 10 -4 35 -10 57 -13z m2493 -3 c3 -4 -7 -19 -22 -32
-25 -22 -25 -22 -8 -1 11 12 16 22 12 22 -4 0 -4 5 -1 10 8 12 12 13 19 1z
m472 -31 c0 -12 -4 -16 -9 -11 -5 5 -6 14 -3 20 10 15 12 14 12 -9z m-256
-263 c0 -2 -10 -12 -22 -23 l-23 -19 19 23 c18 21 26 27 26 19z m70 -52 c14
-19 14 -19 -2 -6 -10 7 -18 18 -18 24 0 6 1 8 3 6 1 -2 9 -13 17 -24z m-1813
-81 c-3 -3 -12 -4 -19 -1 -8 3 -5 6 6 6 11 1 17 -2 13 -5z m940 -50 c-3 -3
-12 -4 -19 -1 -8 3 -5 6 6 6 11 1 17 -2 13 -5z m-50 -10 c-3 -3 -12 -4 -19 -1
-8 3 -5 6 6 6 11 1 17 -2 13 -5z m-830 -10 c-3 -3 -12 -4 -19 -1 -8 3 -5 6 6
6 11 1 17 -2 13 -5z m1593 -8 c0 -2 -8 -10 -17 -17 -16 -13 -17 -12 -4 4 13
16 21 21 21 13z m-793 -222 c-3 -3 -12 -4 -19 -1 -8 3 -5 6 6 6 11 1 17 -2 13
-5z m-144 -21 c-7 -2 -21 -2 -30 0 -10 3 -4 5 12 5 17 0 24 -2 18 -5z m-206
-19 c-3 -3 -12 -4 -19 -1 -8 3 -5 6 6 6 11 1 17 -2 13 -5z m210 -120 c-3 -3
-12 -4 -19 -1 -8 3 -5 6 6 6 11 1 17 -2 13 -5z m-169 -11 c-10 -2 -28 -2 -40
0 -13 2 -5 4 17 4 22 1 32 -1 23 -4z"/>
<path d="M4185 5703 l-18 -28 21 18 c20 18 21 18 31 0 6 -10 10 -13 10 -8 0 6
-6 18 -13 28 -13 16 -15 15 -31 -10z"/>
<path d="M4224 5440 c0 -85 2 -120 3 -77 2 42 2 112 0 155 -1 42 -3 7 -3 -78z"/>
<path d="M3413 4462 c-8 -5 2 -8 25 -9 28 0 32 1 17 7 -26 11 -28 11 -42 2z"/>
<path d="M3378 4423 c7 -3 16 -2 19 1 4 3 -2 6 -13 5 -11 0 -14 -3 -6 -6z"/>
<path d="M3318 4413 c7 -3 16 -2 19 1 4 3 -2 6 -13 5 -11 0 -14 -3 -6 -6z"/>
<path d="M3398 4283 c7 -3 16 -2 19 1 4 3 -2 6 -13 5 -11 0 -14 -3 -6 -6z"/>
<path d="M3298 4263 c7 -3 16 -2 19 1 4 3 -2 6 -13 5 -11 0 -14 -3 -6 -6z"/>
<path d="M3386 3975 c4 -8 13 -15 21 -15 8 0 28 -7 44 -16 29 -14 31 -14 27 3
-2 11 -13 18 -28 19 -14 1 -36 6 -48 13 -18 10 -21 9 -16 -4z"/>
<path d="M3313 3960 c-41 -25 -43 -36 -3 -15 16 8 39 15 52 15 19 0 20 2 8 10
-20 13 -20 13 -57 -10z"/>
<path d="M3038 3963 c7 -3 16 -2 19 1 4 3 -2 6 -13 5 -11 0 -14 -3 -6 -6z"/>
<path d="M3032 3931 c-8 -5 7 -6 36 -3 30 2 52 0 56 -7 4 -6 12 -11 19 -11 6
0 2 7 -9 15 -21 16 -81 20 -102 6z"/>
<path d="M3256 3904 c-9 -24 -7 -27 9 -10 17 17 19 26 6 26 -5 0 -12 -7 -15
-16z"/>
<path d="M3551 3904 c0 -11 3 -14 6 -6 3 7 2 16 -1 19 -3 4 -6 -2 -5 -13z"/>
<path d="M3530 3885 c0 -11 5 -27 10 -35 8 -12 10 -12 10 5 0 11 -5 27 -10 35
-8 12 -10 12 -10 -5z"/>
<path d="M3295 3069 c-4 -5 -4 -13 -1 -16 3 -4 6 0 6 8 0 11 2 11 10 -1 6 -9
10 -10 10 -3 0 17 -17 25 -25 12z"/>
<path d="M3403 2939 c19 -27 23 -39 15 -47 -9 -9 -6 -10 10 -7 14 2 28 -5 42
-22 11 -14 22 -24 24 -22 2 2 -23 33 -57 69 -33 36 -49 49 -34 29z"/>
<path d="M3376 2935 c24 -39 24 -40 24 -28 0 6 -9 21 -21 34 l-20 24 17 -30z"/>
<path d="M3443 2842 c-1 -22 0 -24 9 -8 6 10 6 22 2 26 -5 5 -10 -3 -11 -18z"/>
<path d="M3496 2821 c-4 -6 -1 -11 6 -11 10 0 9 -3 -2 -10 -9 -6 -17 -5 -21 2
-4 7 -9 7 -13 -1 -12 -20 24 -24 44 -6 18 16 20 17 20 2 0 -10 -5 -17 -11 -17
-8 0 -8 -4 0 -14 8 -10 9 -16 1 -21 -5 -3 -10 -1 -10 4 0 6 -5 11 -12 11 -9 0
-9 -3 0 -12 14 -14 16 -32 3 -23 -5 3 -13 0 -17 -6 -4 -8 -3 -9 4 -5 14 9 15
-4 2 -24 -8 -12 -10 -12 -10 -1 0 8 -2 12 -5 9 -3 -3 -2 -13 1 -23 6 -15 10
-12 25 16 22 41 24 32 5 -16 -8 -19 -12 -35 -7 -35 10 0 33 68 27 79 -4 5 5
22 18 38 22 27 23 30 8 40 -9 5 -21 10 -26 11 -5 0 -12 6 -16 12 -5 9 -9 9
-14 1z m46 -53 c-7 -7 -12 -8 -12 -2 0 6 3 14 7 17 3 4 9 5 12 2 2 -3 -1 -11
-7 -17z"/>
<path d="M3400 2786 c0 -2 7 -7 16 -10 8 -3 12 -2 9 4 -6 10 -25 14 -25 6z"/>
<path d="M3446 2776 c3 -8 13 -17 22 -21 13 -5 13 -2 -3 15 -21 24 -26 25 -19
6z"/>
<path d="M3525 2577 c2 -65 16 -100 32 -82 5 4 2 10 -4 12 -7 3 -13 9 -13 15
0 6 8 4 18 -5 10 -10 25 -17 33 -17 7 0 -2 11 -22 25 -31 23 -35 30 -30 58 l6
32 3 -32 c5 -48 18 -40 15 8 -2 46 -10 60 -22 40 -7 -11 -9 -11 -13 0 -3 8 -4
-17 -3 -54z"/>
<path d="M3500 2591 c0 -6 5 -13 10 -16 6 -3 10 1 10 9 0 9 -4 16 -10 16 -5 0
-10 -4 -10 -9z"/>
<path d="M3358 3823 c7 -3 16 -2 19 1 4 3 -2 6 -13 5 -11 0 -14 -3 -6 -6z"/>
<path d="M3390 3261 c0 -6 4 -13 10 -16 6 -3 7 1 4 9 -7 18 -14 21 -14 7z"/>
<path d="M3450 3210 c0 -6 -6 -10 -13 -8 -7 2 -14 -1 -15 -6 -1 -6 4 -11 13
-12 8 -1 15 2 15 7 0 6 4 7 10 4 6 -3 7 1 4 9 -7 18 -14 21 -14 6z"/>
<path d="M3456 3147 c3 -10 9 -15 12 -12 3 3 0 11 -7 18 -10 9 -11 8 -5 -6z"/>
<path d="M4774 2888 l-29 -33 31 28 c17 15 34 24 39 20 4 -5 5 -2 1 5 -9 16
-8 17 -42 -20z"/>
<path d="M3920 2142 c0 -15 60 -22 100 -13 33 9 33 9 -15 8 -27 -1 -58 2 -67
7 -11 5 -18 4 -18 -2z"/>
<path d="M4008 2103 c6 -2 18 -2 25 0 6 3 1 5 -13 5 -14 0 -19 -2 -12 -5z"/>
<path d="M3890 2070 c-23 -7 -23 -8 -3 -9 12 -1 25 4 28 9 3 6 5 10 3 9 -2 -1
-14 -5 -28 -9z"/>
<path d="M3953 2063 c9 -2 25 -2 35 0 9 3 1 5 -18 5 -19 0 -27 -2 -17 -5z"/>
<path d="M4020 2050 c0 -5 5 -10 10 -10 6 0 10 5 10 10 0 6 -4 10 -10 10 -5 0
-10 -4 -10 -10z"/>
<path d="M4063 2040 c5 -31 17 -36 17 -7 0 15 -4 27 -10 27 -5 0 -9 -9 -7 -20z"/>
<path d="M3968 2043 c6 -2 18 -2 25 0 6 3 1 5 -13 5 -14 0 -19 -2 -12 -5z"/>
<path d="M3968 2023 c6 -2 18 -2 25 0 6 3 1 5 -13 5 -14 0 -19 -2 -12 -5z"/>
</g>
</svg>
